<svg id="_x31__x2C_5" height="35" viewBox="0 0 24 24" width="35" xmlns="http://www.w3.org/2000/svg"><path d="m20.875 12.549v5.287c-2.45 1.621-6.96 1.163-8.873-.872-4.77 1.727-7.54 1.524-10.761-1.815-.433-.449-.597-1.093-.424-1.692.641-2.265 2.311-8.116 2.952-10.336.156-.556.571-.987 1.117-1.172l2.952-1.093c.58-.211 1.229-.097 1.705.308l1.74 1.489c.303.264.398.714.216 1.075l-.952 1.903c-.251.493-.866.634-1.299.3l-1.55-1.19h-.007l-1.463 6.619c2.13-1.516 5.575-1.128 7.254.996 1.939-1.313 5.437-1.499 7.393.193z" fill="#ffcc80"/><path d="m13.043 18.957.586-.586c.391-.391 1.024-.391 1.414 0l2.586 2.586c.391.391.391 1.024 0 1.414l-.586.586c-.391.391-1.024.391-1.414 0l-2.586-2.586c-.391-.39-.391-1.023 0-1.414z" fill="#2196f3"/><path d="m18.371 13.629.586-.586c.391-.391 1.024-.391 1.414 0l2.586 2.586c.391.391.391 1.024 0 1.414l-.586.586c-.391.391-1.024.391-1.414 0l-2.586-2.586c-.39-.391-.39-1.024 0-1.414z" fill="#2196f3"/><path d="m16.336 23.999c-.448 0-.896-.171-1.237-.512l-2.586-2.586c-.683-.683-.683-1.792 0-2.475l.586-.586c.682-.682 1.793-.682 2.475 0l2.586 2.586c.683.683.683 1.792 0 2.475l-.586.586c-.342.341-.79.512-1.238.512zm-2-5.171c-.064 0-.128.024-.177.073l-.586.586c-.098.098-.098.256 0 .354l2.586 2.586c.098.098.256.098.354 0l.586-.586c.098-.098.098-.256 0-.354l-2.586-2.586c-.049-.048-.113-.073-.177-.073z"/><path d="m21.664 18.671c-.448 0-.896-.171-1.237-.512l-2.586-2.586c-.683-.683-.683-1.792 0-2.475l.586-.586c.682-.682 1.793-.682 2.475 0l2.586 2.586c.683.683.683 1.792 0 2.475l-.586.586c-.341.341-.79.512-1.238.512zm-2-5.171c-.064 0-.128.024-.177.073l-.586.586c-.098.098-.098.256 0 .354l2.586 2.586c.098.098.256.098.354 0l.586-.586c.098-.098.098-.256 0-.354l-2.586-2.586c-.049-.049-.112-.073-.177-.073z"/><path d="m16.5 20.25c-.192 0-.384-.073-.53-.22-.293-.293-.293-.768 0-1.061l3-3c.293-.293.768-.293 1.061 0s.293.768 0 1.061l-3 3c-.147.147-.339.22-.531.22z"/><path d="m12.419 13.58c-.135 0-.271-.036-.394-.112-.353-.218-.461-.68-.243-1.032.774-1.253 2.318-2.131 4.129-2.348.415-.039.785.246.834.656.049.411-.245.784-.656.834-1.341.16-2.502.791-3.031 1.646-.142.23-.387.356-.639.356z"/><path d="m8.294 18.717c-2.931 0-5.473-1.08-7.578-3.227-.634-.634-.871-1.564-.612-2.422l1.166-4.034c.674-2.334 1.413-4.888 1.792-6.189.233-.793.836-1.411 1.613-1.655l3.176-1.05c.986-.326 2.058-.076 2.797.655l1.251 1.236c.538.52.634 1.363.223 2l-1.227 1.935c-.259.41-.688.679-1.177.737-.485.054-.977-.106-1.33-.451l-.587-.587-1.258.622c-.371.185-.821.03-1.005-.341-.183-.371-.03-.821.341-1.005l1.74-.859c.286-.142.635-.085.862.143l.96.96c.029.028.071.033.101.028l1.315-1.99c.029-.045.024-.088-.008-.119l-1.256-1.243c-.336-.333-.823-.446-1.271-.298l-3.186 1.053c-.306.097-.545.345-.635.651-.378 1.298-1.116 3.851-1.79 6.185l-1.169 4.042c-.102.335-.009.693.239.941 2.235 2.278 5.047 3.158 8.36 2.63.421-.068.795.214.859.621.065.409-.213.794-.621.859-.715.115-1.41.172-2.085.172z"/><path d="m13.013 12.65c-.192 0-.385-.073-.531-.221-1.669-1.676-4.377-1.782-6.036-.238-.304.283-.777.265-1.06-.038s-.266-.777.038-1.06c2.245-2.089 5.888-1.965 8.12.277.292.294.291.769-.002 1.061-.146.146-.338.219-.529.219z"/><path d="m5.75 13c-.07 0-.142-.01-.212-.03-.397-.117-.625-.534-.508-.932l2.2-7.464c.118-.398.538-.624.932-.508.398.118.625.535.508.932l-2.2 7.464c-.097.327-.396.538-.72.538z"/></svg>