<svg id="Layer_1" enable-background="new 0 0 512 512" height="512" viewBox="0 0 512 512" width="512" xmlns="http://www.w3.org/2000/svg"><g><g><g><g><g><g><g><g id="XMLID_2298_"><g id="XMLID_2299_"><g id="XMLID_2300_"><g id="XMLID_2301_"><g id="XMLID_2302_"><g id="XMLID_2303_"><g id="XMLID_2304_"><g id="XMLID_2305_"><g id="XMLID_2306_"><g id="XMLID_2307_"><g id="XMLID_2308_"><g id="XMLID_2309_"><g id="XMLID_2310_"><g id="XMLID_2311_"><g id="XMLID_2312_"><circle cx="256" cy="256" fill="#5b5555" r="256"/></g></g></g></g></g></g></g></g></g></g></g></g></g></g></g></g></g></g></g></g></g><path d="m505.137 196.87-93.438-93.523-108.903-27.677c-142.469-36.208-270.184 96.429-228.617 237.428l29.026 98.458 93.612 93.569c18.986 4.494 38.791 6.873 59.15 6.876 141.104.017 256.034-114.898 256.033-256.002 0-20.352-2.375-40.148-6.863-59.129z" fill="#3f3a3a"/><path d="m256 174.853c-83.326 0-143.997 81.147-143.997 81.147s60.671 81.147 143.997 81.147 143.997-81.147 143.997-81.147-60.671-81.147-143.997-81.147z" fill="#fff"/><path d="m400 256s-60.67 81.15-144 81.15v-162.3c83.33 0 144 81.15 144 81.15z" fill="#d8f1fb"/><g><g><g><g><g><g><g id="XMLID_2283_"><g id="XMLID_2284_"><g id="XMLID_2285_"><g id="XMLID_2286_"><g id="XMLID_2287_"><g id="XMLID_2288_"><g id="XMLID_2289_"><g id="XMLID_2290_"><g id="XMLID_2291_"><g id="XMLID_2292_"><g id="XMLID_2293_"><g id="XMLID_2294_"><g id="XMLID_2295_"><g id="XMLID_2296_"><g id="XMLID_2297_"><circle cx="256" cy="256" fill="#5b5555" r="49.458"/></g></g></g></g></g></g></g></g></g></g></g></g></g></g></g></g></g></g></g></g></g><g><g><g><g><g><g><g id="XMLID_2348_"><g id="XMLID_2349_"><g id="XMLID_2350_"><g id="XMLID_2351_"><g id="XMLID_2352_"><g id="XMLID_2353_"><g id="XMLID_2354_"><g id="XMLID_2355_"><g id="XMLID_2356_"><g id="XMLID_2357_"><g id="XMLID_2358_"><g id="XMLID_2359_"><g id="XMLID_2360_"><g id="XMLID_2361_"><g><path d="m305.46 256c0 27.31-22.15 49.46-49.46 49.46v-98.92c27.31 0 49.46 22.15 49.46 49.46z" fill="#3f3a3a"/></g></g></g></g></g></g></g></g></g></g></g></g></g></g></g></g></g></g></g></g></g><path d="m256 37.852c-120.287 0-218.148 97.861-218.148 218.148s97.861 218.148 218.148 218.148 218.148-97.861 218.148-218.148-97.861-218.148-218.148-218.148zm-174.636 218.148c0-96.295 78.341-174.636 174.636-174.636 39.45 0 75.886 13.149 105.158 35.294l-244.5 244.5c-22.145-29.272-35.294-65.708-35.294-105.158zm174.636 174.636c-39.45 0-75.886-13.149-105.158-35.294l244.5-244.5c22.145 29.271 35.294 65.708 35.294 105.158 0 96.295-78.341 174.636-174.636 174.636z" fill="#ff7038"/><path d="m256 37.85v43.51c39.45 0 75.89 13.15 105.16 35.3l-40.39 40.39-64.77 64.77v68.36l139.34-139.34c22.15 29.27 35.3 65.71 35.3 105.16 0 96.29-78.35 174.64-174.64 174.64v43.51c120.29 0 218.15-97.86 218.15-218.15s-97.86-218.15-218.15-218.15z" fill="#ff405c"/></g></svg>