<svg height="35px" viewBox="0 -61 409.6 409" width="35px" xmlns="http://www.w3.org/2000/svg"><path d="m354.988281 143.660156c0 79.175782-64.1875 143.359375-143.363281 143.359375s-143.359375-64.183593-143.359375-143.359375c0-79.175781 64.183594-143.359375 143.359375-143.359375s143.363281 64.183594 143.363281 143.359375zm0 0" fill="#00e7ff"/><path d="m161.914062 38.03125c15.082032-7.109375 31.933594-11.085938 49.710938-11.085938 64.460938 0 116.714844 52.253907 116.714844 116.714844 0 64.457032-52.253906 116.714844-116.714844 116.714844-64.457031 0-116.710938-52.257812-116.710938-116.714844 0-26.296875 8.695313-50.5625 23.371094-70.078125" fill="#fff"/><path d="m211.625 267.199219c-68.117188 0-123.539062-55.421875-123.539062-123.539063 0-27.007812 8.554687-52.660156 24.746093-74.183594 2.261719-3.011718 6.546875-3.625 9.554688-1.351562 3.015625 2.265625 3.621093 6.539062 1.351562 9.554688-14.390625 19.140624-22 41.957031-22 65.980468 0 60.59375 49.292969 109.886719 109.886719 109.886719s109.890625-49.292969 109.890625-109.886719-49.296875-109.886718-109.890625-109.886718c-16.371094 0-32.117188 3.511718-46.796875 10.433593-3.414063 1.617188-7.488281.136719-9.089844-3.261719-1.605469-3.414062-.144531-7.480468 3.261719-9.085937 16.519531-7.792969 34.226562-11.738281 52.625-11.738281 68.121094 0 123.542969 55.417968 123.542969 123.539062s-55.421875 123.539063-123.542969 123.539063zm0 0" fill="#602f75"/><path d="m287.378906 143.660156c0 41.835938-33.914062 75.753906-75.753906 75.753906-41.835938 0-75.753906-33.917968-75.753906-75.753906 0-41.835937 33.917968-75.753906 75.753906-75.753906 41.839844 0 75.753906 33.917969 75.753906 75.753906zm0 0" fill="#eaeaea"/><path d="m211.625 226.238281c-45.53125 0-82.578125-37.046875-82.578125-82.578125 0-45.535156 37.046875-82.582031 82.578125-82.582031 45.535156 0 82.582031 37.046875 82.582031 82.582031s-37.046875 82.578125-82.582031 82.578125zm0-151.503906c-38.003906 0-68.925781 30.917969-68.925781 68.925781 0 38.007813 30.921875 68.925782 68.925781 68.925782 38.007812 0 68.929688-30.921876 68.929688-68.925782 0-38.007812-30.921876-68.925781-68.929688-68.925781zm0 0" fill="#602f75"/><path d="m211.625 190.839844c-3.773438 0-6.824219-3.054688-6.824219-6.828125 0-3.773438 3.050781-6.824219 6.824219-6.824219 18.488281 0 33.527344-15.039062 33.527344-33.527344 0-3.773437 3.054687-6.828125 6.828125-6.828125 3.773437 0 6.828125 3.054688 6.828125 6.828125 0 26.011719-21.167969 47.179688-47.183594 47.179688zm0 0" fill="#602f75"/><path d="m368.640625 211.265625h34.132813v-177.933594l-2.765626 3.496094c-20.402343 25.796875-31.367187 56.707031-31.367187 88.410156zm0 0" fill="#ea3457"/><path d="m402.773438 218.09375h-34.132813c-3.773437 0-6.828125-3.054688-6.828125-6.828125v-86.027344c0-33.4375 11.355469-65.476562 32.839844-92.644531l2.765625-3.5c1.808593-2.28125 4.855469-3.167969 7.601562-2.207031 2.738281.953125 4.582031 3.539062 4.582031 6.445312v177.933594c0 3.773437-3.054687 6.828125-6.828124 6.828125zm-27.308594-13.652344h20.480468v-150.007812c-13.4375 21.585937-20.480468 45.777344-20.480468 70.804687zm0 0" fill="#602f75"/><path d="m368.640625 211.265625v51.199219c0 9.425781 7.640625 17.066406 17.066406 17.066406s17.066407-7.640625 17.066407-17.066406v-51.199219zm0 0" fill="#ffe600"/><path d="m385.707031 286.359375c-13.175781 0-23.894531-10.71875-23.894531-23.894531v-51.199219c0-3.773437 3.054688-6.824219 6.828125-6.824219h34.132813c3.773437 0 6.828124 3.050782 6.828124 6.824219v51.199219c0 13.175781-10.722656 23.894531-23.894531 23.894531zm-10.242187-68.265625v44.371094c0 5.648437 4.59375 10.242187 10.242187 10.242187 5.648438 0 10.238281-4.59375 10.238281-10.242187v-44.371094zm0 0" fill="#602f75"/><path d="m34.574219 205.398438c-3.773438 0-6.828125-3.054688-6.828125-6.828126v-85.738281c0-3.773437 3.054687-6.828125 6.828125-6.828125 3.773437 0 6.824219 3.054688 6.824219 6.828125v85.738281c0 3.773438-3.050782 6.828126-6.824219 6.828126zm0 0" fill="#602f75"/><path d="m34.132812 108.867188c-15.082031 0-27.304687-12.226563-27.304687-27.308594h54.613281c0 15.082031-12.226562 27.308594-27.308594 27.308594zm0 0" fill="#ea3457"/><g fill="#602f75"><path d="m34.132812 115.691406c-18.820312 0-34.132812-15.3125-34.132812-34.132812 0-3.773438 3.054688-6.824219 6.828125-6.824219h54.613281c3.773438 0 6.824219 3.050781 6.824219 6.824219 0 18.820312-15.3125 34.132812-34.132813 34.132812zm-19.3125-27.304687c2.820313 7.945312 10.414063 13.652343 19.3125 13.652343 8.898438 0 16.492188-5.707031 19.3125-13.652343zm0 0"/><path d="m6.828125 88.386719c-3.773437 0-6.828125-3.054688-6.828125-6.828125v-47.785156c0-3.773438 3.054688-6.828126 6.828125-6.828126s6.824219 3.054688 6.824219 6.828126v47.785156c0 3.773437-3.050782 6.828125-6.824219 6.828125zm0 0"/><path d="m61.441406 88.386719c-3.773437 0-6.828125-3.054688-6.828125-6.828125v-47.785156c0-3.773438 3.054688-6.828126 6.828125-6.828126 3.773438 0 6.824219 3.054688 6.824219 6.828126v47.785156c0 3.773437-3.050781 6.828125-6.824219 6.828125zm0 0"/><path d="m34.132812 88.386719c-3.773437 0-6.824218-3.054688-6.824218-6.828125v-47.785156c0-3.773438 3.050781-6.828126 6.824218-6.828126 3.773438 0 6.828126 3.054688 6.828126 6.828126v47.785156c0 3.773437-3.054688 6.828125-6.828126 6.828125zm0 0"/></g><path d="m20.480469 197.613281v68.265625c0 7.539063 6.113281 13.652344 13.652343 13.652344 7.539063 0 13.652344-6.113281 13.652344-13.652344v-68.265625zm0 0" fill="#ffe600"/><path d="m34.132812 286.359375c-11.292968 0-20.480468-9.1875-20.480468-20.480469v-68.265625c0-3.773437 3.054687-6.828125 6.828125-6.828125h27.304687c3.773438 0 6.828125 3.054688 6.828125 6.828125v68.265625c0 11.292969-9.1875 20.480469-20.480469 20.480469zm-6.824218-81.917969v61.4375c0 3.765625 3.058594 6.828125 6.824218 6.828125 3.765626 0 6.828126-3.0625 6.828126-6.828125v-61.4375zm0 0" fill="#602f75"/></svg>